<?xml version="1.0" encoding="UTF-8"?>
<svg width="1200" height="630" version="1.1" viewBox="0 0 317.5 166.69" xml:space="preserve" xmlns="http://www.w3.org/2000/svg"><path d="m156.01 73.819c-1.5875-2.6458-4.2333-4.4979-7.4083-4.4979-4.4979 0-7.9375 3.4396-7.9375 7.9375 0 8.7313 4.7625 10.054 15.346 20.108 10.583-10.054 15.346-11.377 15.346-20.108 0-4.4979-3.4396-7.9375-7.9375-7.9375-3.175 0-5.8208 1.8521-7.4083 4.4979z" fill="#ff0707" stroke-width=".26458"/><path d="m24.555 40.563v82.599h16.48v2.9631h10.082c-1.0795-0.13974-2.0748-0.46383-2.9849-0.97529-1.2424-0.70401-2.226-1.6617-2.9507-2.873-0.71438-1.2217-1.0716-2.6039-1.0716-4.1466 0-1.5426 0.3572-2.9196 1.0716-4.131 0.72474-1.2217 1.7083-2.1846 2.9507-2.8886 1.2528-0.70401 2.666-1.056 4.2398-1.056 1.2631 0 2.4279 0.23291 3.4942 0.69884 1.0767 0.46587 1.993 1.1234 2.7488 1.9723l-2.2363 2.3761c-0.4659-0.50731-1.0302-0.90073-1.6928-1.1803-0.65226-0.27948-1.346-0.41932-2.081-0.41932-0.89039 0-1.6824 0.19685-2.3761 0.59014-0.68333 0.39342-1.2217 0.937-1.6151 1.6306-0.38308 0.69367-0.5746 1.4909-0.5746 2.3916s0.19152 1.7031 0.5746 2.4071c0.39342 0.69367 0.9318 1.2424 1.6151 1.6462 0.69367 0.39342 1.4857 0.59014 2.3761 0.59014 0.73508 0 1.434-0.13974 2.0965-0.41932 0.66262-0.29001 1.2217-0.68333 1.6773-1.1803l2.2674 2.345c-0.75579 0.85932-1.6721 1.5271-2.7488 2.0034-0.71522 0.30948-1.4747 0.5142-2.2767 0.61809h13.997c-1.0846-0.14004-2.0828-0.46398-2.9926-0.97529-1.2424-0.70401-2.226-1.6617-2.9507-2.873-0.71438-1.2217-1.0716-2.6039-1.0716-4.1466 0-1.5426 0.3572-2.9196 1.0716-4.131 0.72474-1.2217 1.7083-2.1846 2.9507-2.8886 1.2528-0.70401 2.6712-1.056 4.2551-1.056 1.5737 0 2.9818 0.35203 4.2242 1.056 1.2424 0.70401 2.2156 1.6669 2.9197 2.8886 0.71438 1.2114 1.0716 2.5884 1.0716 4.131s-0.3572 2.9248-1.0716 4.1466c-0.70401 1.2113-1.6773 2.169-2.9197 2.873-0.90247 0.5114-1.8936 0.83537-2.9709 0.97529h11.264v-12.033h-2.7178v-3.4167h2.7178v-2.7178c0-1.0768 0.24342-2.0293 0.72991-2.8575 0.49695-0.82824 1.1699-1.4754 2.0189-1.9413 0.85932-0.47624 1.8481-0.71438 2.9662-0.71438 0.69367 0 1.3977 0.0983 2.1121 0.29512 0.71438 0.19684 1.4132 0.50214 2.0965 0.91627l-1.4443 2.9818c-0.34167-0.25875-0.69884-0.45036-1.0716-0.5746-0.36237-0.13463-0.72474-0.20195-1.0871-0.20195-0.71438 0-1.3097 0.25364-1.786 0.76096-0.47624 0.50731-0.71438 1.201-0.71438 2.081v1.9723h4.69v3.4167h-4.69v12.033h6.4808l6.58-7.886-6.2431-7.563h5.2027l3.6496 4.8763 3.5874-4.8763h5.1561l-6.1809 7.5011 6.5646 7.9483h0.0373c6e-3 -29.623 3e-3 -60.084 3e-3 -85.562zm44.294 72.922c-0.81791 0-1.5582 0.20195-2.2208 0.60568-0.65226 0.40378-1.1699 0.95768-1.553 1.6617-0.37271 0.69366-0.55909 1.4805-0.55909 2.3606 0 0.89039 0.18635 1.6876 0.55909 2.3916 0.38308 0.70401 0.90076 1.2579 1.553 1.6617 0.66262 0.40378 1.4029 0.60567 2.2208 0.60567 0.82827 0 1.5686-0.20195 2.2208-0.60567 0.65226-0.40379 1.1648-0.95771 1.5375-1.6617 0.38308-0.70404 0.5746-1.5012 0.5746-2.3916 0-0.88002-0.19143-1.6669-0.5746-2.3606-0.37271-0.70401-0.88523-1.2579-1.5375-1.6617-0.65226-0.40379-1.3925-0.60568-2.2208-0.60568zm32.009 7.3301-4.0237 5.3082h7.9855z" fill="#2aa0a2" stroke-width="3.0052" style="font-variation-settings:'wght' 600"/><g transform="matrix(1.5138 0 0 1.5138 -105.9 233.84)" stroke-width=".20598"><path d="m221.52-80.658s-2.9204 1.6983 2.0784 2.273c6.0558 0.69086 9.1509 0.59178 15.824-0.67129 0 0 1.7546 1.1001 4.2049 2.053-14.96 6.4118-33.858-0.37138-22.108-3.6547" fill="#5382a1"/><path d="m219.69-89.025s-3.2755 2.4246 1.7269 2.942c6.469 0.66738 11.578 0.72196 20.418-0.98026 0 0 1.2227 1.2396 3.1453 1.9175-18.088 5.2892-38.235 0.41711-25.29-3.8792" fill="#5382a1"/><path d="m235.11-103.22c3.6862 4.244-0.96852 8.0631-0.96852 8.0631s9.36-4.8319 5.0614-10.883c-4.0148-5.6426-7.0936-8.4462 9.5738-18.113 0 0-26.162 6.5341-13.667 20.932" fill="#f8981d"/><g fill="#5382a1"><path d="m254.89-74.47s2.1612 1.7807-2.3801 3.1583c-8.6353 2.616-35.941 3.4059-43.527 0.10423-2.7268-1.1862 2.3867-2.8324 3.9952-3.1779 1.6775-0.36376 2.6361-0.296 2.6361-0.296-3.0324-2.1362-19.601 4.1946-8.4158 6.0076 30.502 4.9466 55.603-2.2275 47.691-5.7963"/><path d="m222.93-97.694s-13.89 3.299-4.9186 4.497c3.7878 0.50712 11.339 0.39239 18.372-0.19692 5.7481-0.48488 11.52-1.5158 11.52-1.5158s-2.0268 0.868-3.4932 1.8693c-14.105 3.7095-41.352 1.9838-33.508-1.8106 6.6338-3.2067 12.028-2.8429 12.028-2.8429"/><path d="m247.84-83.767c14.338-7.4505 7.7086-14.61 3.0815-13.646-1.1341 0.23605-1.6398 0.44059-1.6398 0.44059s0.42102-0.65955 1.2252-0.94504c9.154-3.2182 16.194 9.4918-2.955 14.526 0 2.05e-4 0.22184-0.19815 0.28817-0.3755"/></g><path d="m239.2-139.76s7.9406 7.9432-7.5313 20.158c-12.407 9.7981-2.8291 15.385-5e-3 21.768-7.2421-6.5341-12.557-12.286-8.9913-17.64 5.2334-7.8584 19.732-11.668 16.528-24.286" fill="#f8981d"/><path d="m224.34-63.578c13.763 0.88098 34.897-0.48879 35.397-7.0009 0 0-0.96214 2.4687-11.374 4.4292-11.747 2.2106-26.235 1.9525-34.827 0.53576 2e-4 -2.06e-4 1.7591 1.4559 10.804 2.0359" fill="#5382a1"/></g></svg>
