<?xml version="1.0" encoding="UTF-8"?>
<!-- Created with Inkscape (http://www.inkscape.org/) -->
<svg width="1200" height="630" version="1.1" viewBox="0 0 317.5 166.69" xml:space="preserve" xmlns="http://www.w3.org/2000/svg"><g transform="matrix(.26458 0 0 .26458 191.49 30.359)"><path d="m179 382.96c-147.76-18.082-215.02-193.79-116.71-304.85 107.36-121.28 308.39-53.343 320.63 108.36 8.6893 114.8-90.501 210.37-203.92 196.49z" fill="#4380db"/><g stroke-linecap="round"><path transform="rotate(.087341)" d="m53.142 189.13a237.96 237.96 0 0 0-36.554 0.64752c-4.3534 90.802 59.652 180.43 163 192.91 31.559 3.8132 61.995-0.86409 89.312-12.044a237.96 237.96 0 0 0-67.549-116.74 237.96 237.96 0 0 0-148.2-64.776z" fill="#41b501" stroke-width="21.237" style="font-variation-settings:'wght' 600"/><path d="m368.13 126.16a73.93 73.93 0 0 0-42.85 20.062l-8.7168 10.064a73.93 73.93 0 0 0 14.188 101.18 73.93 73.93 0 0 0 37.625 15.449c11.385-26.284 16.874-55.662 14.543-86.453-1.6598-21.928-6.8898-42.061-14.789-60.303z" fill="#89b4ff" stroke-width="13.333" style="font-variation-settings:'wght' 600"/><path d="m290.2 198.19a127.84 127.84 0 0 0-97.051 35.516l-15.07 17.404a127.84 127.84 0 0 0-11.215 129.93c3.9892 0.74348 8.0188 1.4123 12.135 1.916 94.394 11.551 178.87-52.737 199.56-140.8a127.84 127.84 0 0 0-8.7461-9.1738 127.84 127.84 0 0 0-79.617-34.799z" fill="#76e013" stroke-width="13.333" style="font-variation-settings:'wght' 600"/></g><path d="m186.5 313.89c-36.09-5.2046-59.259-30.195-59.465-64.141l-0.0349-5.75h16l0.0119 7.25c0.096 58.63 101.69 65.783 113.03 7.9581 6.2906-32.068-6.7504-46.686-56.767-63.631-48.442-16.412-61.499-30.186-58.168-61.364 7.4571-69.79 113.71-62.758 113.88 7.5369l0.0174 7.25h-15.733l-0.47489-9.8621c-0.11835-6.3105-0.9323-10.84-3.5056-16.339-17.592-37.593-78.143-23.957-78.601 17.701-0.2196 19.99 7.7133 26.575 48.768 40.484 46.464 15.742 62.078 28.902 66.479 56.034 7.7359 47.681-33.094 84.42-85.433 76.872z" fill="#fff"/></g><path d="m152.89 73.819c-1.5875-2.6458-4.2333-4.4979-7.4083-4.4979-4.4979 0-7.9375 3.4396-7.9375 7.9375 0 8.7313 4.7625 10.054 15.346 20.108 10.583-10.054 15.346-11.377 15.346-20.108 0-4.4979-3.4396-7.9375-7.9375-7.9375-3.175 0-5.8208 1.8521-7.4083 4.4979z" fill="#ff0707" stroke-width=".26458"/><path d="m24.555 40.563v82.599h16.48v2.9631h10.082c-1.0795-0.13974-2.0748-0.46383-2.9849-0.97529-1.2424-0.70401-2.226-1.6617-2.9507-2.873-0.71438-1.2217-1.0716-2.6039-1.0716-4.1466 0-1.5426 0.3572-2.9196 1.0716-4.131 0.72474-1.2217 1.7083-2.1846 2.9507-2.8886 1.2528-0.70401 2.666-1.056 4.2398-1.056 1.2631 0 2.4279 0.23291 3.4942 0.69884 1.0767 0.46587 1.993 1.1234 2.7488 1.9723l-2.2363 2.3761c-0.4659-0.50731-1.0302-0.90073-1.6928-1.1803-0.65226-0.27948-1.346-0.41932-2.081-0.41932-0.89039 0-1.6824 0.19685-2.3761 0.59014-0.68333 0.39342-1.2217 0.937-1.6151 1.6306-0.38308 0.69367-0.5746 1.4909-0.5746 2.3916s0.19152 1.7031 0.5746 2.4071c0.39342 0.69367 0.9318 1.2424 1.6151 1.6462 0.69367 0.39342 1.4857 0.59014 2.3761 0.59014 0.73508 0 1.434-0.13974 2.0965-0.41932 0.66262-0.29001 1.2217-0.68333 1.6773-1.1803l2.2674 2.345c-0.75579 0.85932-1.6721 1.5271-2.7488 2.0034-0.71522 0.30948-1.4747 0.5142-2.2767 0.61809h13.997c-1.0846-0.14004-2.0828-0.46398-2.9926-0.97529-1.2424-0.70401-2.226-1.6617-2.9507-2.873-0.71438-1.2217-1.0716-2.6039-1.0716-4.1466 0-1.5426 0.3572-2.9196 1.0716-4.131 0.72474-1.2217 1.7083-2.1846 2.9507-2.8886 1.2528-0.70401 2.6712-1.056 4.2551-1.056 1.5737 0 2.9818 0.35203 4.2242 1.056 1.2424 0.70401 2.2156 1.6669 2.9197 2.8886 0.71438 1.2114 1.0716 2.5884 1.0716 4.131s-0.3572 2.9248-1.0716 4.1466c-0.70401 1.2113-1.6773 2.169-2.9197 2.873-0.90247 0.5114-1.8936 0.83537-2.9709 0.97529h11.264v-12.033h-2.7178v-3.4167h2.7178v-2.7178c0-1.0768 0.24342-2.0293 0.72991-2.8575 0.49695-0.82824 1.1699-1.4754 2.0189-1.9413 0.85932-0.47624 1.8481-0.71438 2.9662-0.71438 0.69367 0 1.3977 0.0983 2.1121 0.29512 0.71438 0.19684 1.4132 0.50214 2.0965 0.91627l-1.4443 2.9818c-0.34167-0.25875-0.69884-0.45036-1.0716-0.5746-0.36237-0.13463-0.72474-0.20195-1.0871-0.20195-0.71438 0-1.3097 0.25364-1.786 0.76096-0.47624 0.50731-0.71438 1.201-0.71438 2.081v1.9723h4.69v3.4167h-4.69v12.033h6.4808l6.58-7.886-6.2431-7.563h5.2027l3.6496 4.8763 3.5874-4.8763h5.1561l-6.1809 7.5011 6.5646 7.9483h0.0373c6e-3 -29.623 3e-3 -60.084 3e-3 -85.562zm44.294 72.922c-0.81791 0-1.5582 0.20195-2.2208 0.60568-0.65226 0.40378-1.1699 0.95768-1.553 1.6617-0.37271 0.69366-0.55909 1.4805-0.55909 2.3606 0 0.89039 0.18635 1.6876 0.55909 2.3916 0.38308 0.70401 0.90076 1.2579 1.553 1.6617 0.66262 0.40378 1.4029 0.60567 2.2208 0.60567 0.82827 0 1.5686-0.20195 2.2208-0.60567 0.65226-0.40379 1.1648-0.95771 1.5375-1.6617 0.38308-0.70404 0.5746-1.5012 0.5746-2.3916 0-0.88002-0.19143-1.6669-0.5746-2.3606-0.37271-0.70401-0.88523-1.2579-1.5375-1.6617-0.65226-0.40379-1.3925-0.60568-2.2208-0.60568zm32.009 7.3301-4.0237 5.3082h7.9855z" fill="#2aa0a2" stroke-width="3.0052" style="font-variation-settings:'wght' 600"/></svg>
