<?xml version="1.0" encoding="UTF-8"?>
<!-- Created with Inkscape (http://www.inkscape.org/) -->
<svg width="1200" height="630" version="1.1" viewBox="0 0 317.5 166.69" xml:space="preserve" xmlns="http://www.w3.org/2000/svg"><rect x="-26.942" y="-18.603" width="377.83" height="214.89" fill="#fff" stroke="#fff" stroke-linecap="round" stroke-width="3.5278" style="font-variation-settings:'wght' 600"/><path d="m150.96 71.846c-1.5875-2.6458-4.2333-4.4979-7.4083-4.4979-4.4979 0-7.9375 3.4396-7.9375 7.9375 0 8.7313 4.7625 10.054 15.346 20.108 10.583-10.054 15.346-11.377 15.346-20.108 0-4.4979-3.4396-7.9375-7.9375-7.9375-3.175 0-5.8208 1.8521-7.4083 4.4979z" fill="#ff0707" stroke-width=".26458"/><path d="m20.026 38.59v82.599h16.48v2.9631h10.082c-1.0795-0.13974-2.0748-0.46383-2.9849-0.97529-1.2424-0.70401-2.226-1.6617-2.9507-2.873-0.71438-1.2217-1.0716-2.6039-1.0716-4.1466 0-1.5426 0.3572-2.9196 1.0716-4.131 0.72474-1.2217 1.7083-2.1846 2.9507-2.8886 1.2528-0.70401 2.666-1.056 4.2398-1.056 1.2631 0 2.4279 0.23291 3.4942 0.69884 1.0767 0.46587 1.993 1.1234 2.7488 1.9723l-2.2363 2.3761c-0.4659-0.50731-1.0302-0.90073-1.6928-1.1803-0.65226-0.27948-1.346-0.41932-2.081-0.41932-0.89039 0-1.6824 0.19685-2.3761 0.59014-0.68333 0.39342-1.2217 0.937-1.6151 1.6306-0.38308 0.69367-0.5746 1.4909-0.5746 2.3916s0.19152 1.7031 0.5746 2.4071c0.39342 0.69367 0.9318 1.2424 1.6151 1.6462 0.69367 0.39342 1.4857 0.59014 2.3761 0.59014 0.73508 0 1.434-0.13974 2.0965-0.41932 0.66262-0.29001 1.2217-0.68333 1.6773-1.1803l2.2674 2.345c-0.75579 0.85932-1.6721 1.5271-2.7488 2.0034-0.71522 0.30948-1.4747 0.5142-2.2767 0.61809h13.997c-1.0846-0.14004-2.0828-0.46398-2.9926-0.97529-1.2424-0.70401-2.226-1.6617-2.9507-2.873-0.71438-1.2217-1.0716-2.6039-1.0716-4.1466 0-1.5426 0.3572-2.9196 1.0716-4.131 0.72474-1.2217 1.7083-2.1846 2.9507-2.8886 1.2528-0.70401 2.6712-1.056 4.2551-1.056 1.5737 0 2.9818 0.35203 4.2242 1.056 1.2424 0.70401 2.2156 1.6669 2.9197 2.8886 0.71438 1.2114 1.0716 2.5884 1.0716 4.131s-0.3572 2.9248-1.0716 4.1466c-0.70401 1.2113-1.6773 2.169-2.9197 2.873-0.90247 0.5114-1.8936 0.83537-2.9709 0.97529h11.264v-12.033h-2.7178v-3.4167h2.7178v-2.7178c0-1.0768 0.24342-2.0293 0.72991-2.8575 0.49695-0.82824 1.1699-1.4754 2.0189-1.9413 0.85932-0.47624 1.8481-0.71438 2.9662-0.71438 0.69367 0 1.3977 0.0983 2.1121 0.29512 0.71438 0.19684 1.4132 0.50214 2.0965 0.91627l-1.4443 2.9818c-0.34167-0.25875-0.69884-0.45036-1.0716-0.5746-0.36237-0.13463-0.72474-0.20195-1.0871-0.20195-0.71438 0-1.3097 0.25364-1.786 0.76096-0.47624 0.50731-0.71438 1.201-0.71438 2.081v1.9723h4.69v3.4167h-4.69v12.033h6.4808l6.58-7.886-6.2431-7.563h5.2027l3.6496 4.8763 3.5874-4.8763h5.1561l-6.1809 7.5011 6.5646 7.9483h0.0373c6e-3 -29.623 3e-3 -60.084 3e-3 -85.562zm44.294 72.922c-0.81791 0-1.5582 0.20195-2.2208 0.60568-0.65226 0.40378-1.1699 0.95768-1.553 1.6617-0.37271 0.69366-0.55909 1.4805-0.55909 2.3606 0 0.89039 0.18635 1.6876 0.55909 2.3916 0.38308 0.70401 0.90076 1.2579 1.553 1.6617 0.66262 0.40378 1.4029 0.60567 2.2208 0.60567 0.82827 0 1.5686-0.20195 2.2208-0.60567 0.65226-0.40379 1.1648-0.95771 1.5375-1.6617 0.38308-0.70404 0.5746-1.5012 0.5746-2.3916 0-0.88002-0.19143-1.6669-0.5746-2.3606-0.37271-0.70401-0.88523-1.2579-1.5375-1.6617-0.65226-0.40379-1.3925-0.60568-2.2208-0.60568zm32.009 7.3301-4.0237 5.3082h7.9855z" fill="#2aa0a2" stroke-width="3.0052" style="font-variation-settings:'wght' 600"/><g transform="matrix(.39488 0 0 .39488 196.38 32.798)"><path d="m128 0c-70.576 0-128 57.423-128 128 0 70.584 57.423 128 128 128 70.578 0 128-57.42 128-128 0-70.578-57.423-128-128-128" fill="#fff"/><path d="m123.32 130.3c-1.15 2.492-2.419 5.292-3.733 8.272-4.645 10.524-9.789 23.33-11.668 31.534-0.675 2.922-1.093 6.543-1.085 10.558 0 1.588 0.085 3.257 0.22 4.957 6.567 2.413 13.66 3.74 21.067 3.753 6.743-0.013 13.221-1.127 19.284-3.143-1.425-1.303-2.785-2.692-4.023-4.257-8.22-10.482-12.806-25.844-20.062-51.674" fill="#91dc47"/><path d="m92.97 78.225c-15.699 11.064-25.972 29.312-26.011 49.992 0.039 20.371 10.003 38.383 25.307 49.493 3.754-15.637 13.164-29.955 27.275-58.655-0.838-2.302-1.793-4.822-2.862-7.469-3.909-9.806-9.551-21.194-14.586-26.351-2.567-2.694-5.682-5.022-9.123-7.01" fill="#91dc47"/><path d="m181.39 198.37c-8.1-1.015-14.785-2.24-20.633-4.303-9.836 4.884-20.913 7.643-32.642 7.643-40.584 0-73.483-32.894-73.488-73.49 0-22.027 9.704-41.773 25.056-55.24-4.106-0.992-8.388-1.571-12.762-1.563-21.562 0.203-44.323 12.136-53.799 44.363-0.886 4.691-0.675 8.238-0.675 12.442 0 63.885 51.791 115.68 115.67 115.68 39.122 0 73.682-19.439 94.611-49.169-11.32 2.821-22.206 4.17-31.528 4.199-3.494 0-6.774-0.187-9.811-0.558" fill="#63b132"/><path d="m159.66 175.95c0.714 0.354 2.333 0.932 4.586 1.571 15.157-11.127 25.007-29.05 25.046-49.307h-6e-3c-0.057-33.771-27.386-61.096-61.165-61.163-6.714 0.013-13.164 1.121-19.203 3.122 12.419 14.156 18.391 34.386 24.168 56.515 3e-3 0.01 8e-3 0.018 0.01 0.026 0.011 0.018 1.848 6.145 5.002 14.274 3.132 8.118 7.594 18.168 12.46 25.492 3.195 4.908 6.709 8.435 9.102 9.47" fill="#90b4fe"/><path d="m128.12 12.541c-38.744 0-73.016 19.073-94.008 48.318 10.925-6.842 22.08-9.31 31.815-9.222 13.446 0.039 24.017 4.208 29.089 7.06 1.225 0.706 2.388 1.466 3.527 2.247 9.05-3.986 19.05-6.215 29.574-6.215 40.589 5e-3 73.493 32.899 73.499 73.488h-6e-3c0 20.464-8.37 38.967-21.863 52.291 3.312 0.371 6.844 0.602 10.451 0.584 12.811 6e-3 26.658-2.821 37.039-11.552 6.769-5.702 12.44-14.051 15.585-26.569 0.615-4.835 0.969-9.75 0.969-14.752 0-63.882-51.786-115.68-115.67-115.68" fill="#5881d8"/></g></svg>
